<?xml version="1.0" encoding="UTF-8"?>
<svg id="_Слой_2" data-name="Слой 2" xmlns="http://www.w3.org/2000/svg" viewBox="0 0 206.45 156.92">
  <defs>
    <style>
      .cls-1 {
        fill: #124695;
      }

      .cls-2 {
        fill: #1e4087;
      }

      .cls-3 {
        fill: #477dbf;
      }

      .cls-4 {
        fill: #6597d0;
      }

      .cls-5 {
        fill: #4978bc;
      }

      .cls-6 {
        fill: #5378bb;
      }

      .cls-7 {
        fill: #1c4998;
      }

      .cls-8 {
        fill: #477dc0;
      }

      .cls-9 {
        fill: #204d9a;
      }

      .cls-10 {
        fill: #204998;
      }
    </style>
  </defs>
  <g id="_Слой_1-2" data-name="Слой 1">
    <g>
      <path class="cls-7" d="M179.76,59.68c4.92,3.73,31.21,17.69,26.02,25.44l-103.44,71.8c-14.94-11.96,2.31-33.11.18-48.51l-91.94,10.58c-5.77-2.31-5.15,1.39-6.25-3.65-.31-1.39.22-3.44,0-4.97h1c.39.41,2.29.68,2.98,2.98-.5-1.77.88-3.7,1.01-4.96.28-.04.74-.97,1-.99,32.38-3.48,64.95-5.64,97.25-9.98,3.8-.98,3.19,3.83,3.43,4.02l-7.99,39.24c2.92,1.28,4-1.72,5-3.46l86.24-58.63c.48-1.12-17.1-14.9-18.46-15.91h3.98s-2-1.5-2-1.5l2-1.48Z"/>
      <path class="cls-9" d="M92.04,48.75c1.68.08,7.52,3.41,11.97.99L95.54.04c1.8-.52,11.03,4.98,13.22,6.29,22.01,13.25,49.8,37.3,71,53.35l-2,1.48,2,1.49h-3.98c-20.95-15.53-45.11-30.44-66.79-46.7-.51-.38-3.51-5.81-5.97-5.96.29,5.06,2.1,9.99,2.98,14.91.74,4.15,6.57,29.64,5.57,30.86-1.34,1.64-10.43.98-13.03.92-1.48-.04-11.75-.31-11.49-2.96,1.1-.15,3.11.43,3.85-.12.47-.35.59-3.84,1.13-4.84Z"/>
      <path class="cls-10" d="M.33,45.77c1.2-10.49,3.09-4.39,8.52-4.01,26.95,1.9,53.69,5.6,83.19,6.99-.55,1-.67,4.49-1.13,4.84-.74.55-2.75-.03-3.85.12-21.95,3.1-54.83-6.82-77.75-6.96-.89,0-2.3-.18-2.99,0-2.82.73-2.69,6.54-3.03,10.4-1.3,15.08-.13,35,1.03,50.22.03.33-.03.67,0,.99.02.17-.22.45,0,1.99s-.31,3.58,0,4.97c-5.21.53-3.8-7.7-3.99-11.93v-40.75c.02-.99-.03-1.99,0-2.98v-13.91Z"/>
      <path class="cls-2" d="M.33,103.4c-.59-13.07-.26-27.59,0-40.75v40.75Z"/>
      <path class="cls-2" d="M.33,59.68c.12-4.44-.48-9.67,0-13.91v13.91Z"/>
      <path class="cls-4" d="M108.98,15.95c21.68,16.25,45.84,31.16,66.79,46.71,1.36,1.01,18.94,14.79,18.46,15.91l-86.24,58.63c2.78-4.86,8.95-30.53,6.72-34.55-.53-.95-3.26-.85-3.73-1.22-.24-.19.37-5-3.43-4.02-32.3,4.34-64.87,6.5-97.25,9.98l-1-52.67v-2.98l106.65,10.93c1.75-2.02-6.08-32.77-6.97-37.76-.39-2.22-1.43-7.11,0-8.94Z"/>
      <path class="cls-3" d="M110.98,101.42c.47.37,3.21.28,3.73,1.22,2.23,4.02-3.94,29.69-6.72,34.55-1,1.74-2.08,4.75-5,3.46l7.99-39.24Z"/>
      <path class="cls-8" d="M10.3,107.38c-.26.03-.72.96-1,.99,1.64-15.8,0-37.19,0-53.66l1,52.67Z"/>
      <path class="cls-10" d="M9.3,108.37c-.13,1.26-1.51,3.19-1.01,4.96-.68-2.3-2.59-2.56-2.98-2.98-.19-.2.12-1.43,0-1.99h1c.97,0,2.05.13,2.99,0Z"/>
      <path class="cls-1" d="M5.31,108.37c.12.56-.19,1.79,0,1.99h-1c-.22-1.53.02-1.82,0-1.99h1Z"/>
      <path class="cls-8" d="M108.98,24.9c.88,4.99,8.71,35.74,6.97,37.76L9.3,51.73v-4.97c22.93.14,55.8,10.06,77.75,6.96-.27,2.65,10.01,2.92,11.49,2.96,2.6.06,11.68.72,13.03-.92,1-1.21-4.83-26.71-5.57-30.86h2.99Z"/>
      <path class="cls-5" d="M108.98,15.95c-1.43,1.84-.39,6.72,0,8.94h-2.99c-.88-4.92-2.69-9.84-2.98-14.91,2.46.15,5.46,5.58,5.97,5.96Z"/>
      <path class="cls-6" d="M9.3,46.76v7.95c0,16.47,1.64,37.87,0,53.66-.94.13-2.02,0-2.99,0v-61.61c.69-.18,2.1,0,2.99,0Z"/>
      <path class="cls-1" d="M6.31,46.76v59.63l-1.99.99c-1.16-15.22-2.33-35.14-1.03-50.22.33-3.86.2-9.67,3.03-10.4Z"/>
      <path class="cls-7" d="M6.31,108.37h-1.99c-.03-.33.03-.66,0-.99l1.99-.99v1.99Z"/>
    </g>
  </g>
</svg>