<?xml version="1.0" encoding="UTF-8"?>
<svg id="_Слой_2" data-name="Слой 2" xmlns="http://www.w3.org/2000/svg" viewBox="0 0 186.17 190.96">
  <defs>
    <style>
      .cls-1 {
        fill: #fdfdfe;
      }

      .cls-2 {
        fill: #76a9e7;
      }

      .cls-3 {
        fill: #4679b7;
      }

      .cls-4 {
        fill: #c9cbcc;
      }

      .cls-5 {
        fill: #5294e1;
      }
    </style>
  </defs>
  <g id="_Слой_1-2" data-name="Слой 1">
    <g>
      <path class="cls-5" d="M1.99,73.95l10.93-22.96C46.64-7.47,128.16-11.68,167.64,42.46l16.54,30.47c.47,2.37,1.99,10.06,1.99,11.72v22.43c0,1.87-1.56,8.07-1.99,10.71-25.77,95.72-154.96,96.25-182.19,1.02-.41-2.41-1.99-9.28-1.99-10.71v-24.47c0-1.3,1.58-7.52,1.99-9.69Z"/>
      <path class="cls-5" d="M70.69,64.35c4.79,25.6,40.02,25.6,44.8,0,8.04-43.02-52.84-43.01-44.8,0Z"/>
      <path class="cls-5" d="M46.79,136.03c1.99,15.31,25.98,21.13,39.28,21.95,15.44.96,50.76-2.31,53.31-21.95,7.74-59.55-100.32-59.45-92.59,0Z"/>
      <path class="cls-2" d="M183.68,71.16l-16.54-29.75C127.66-11.47,46.14-7.35,12.42,49.73L1.49,72.15c18.69-96.17,162.88-95.9,182.19-1Z"/>
      <path class="cls-4" d="M1.49,117.01c27.23,92.99,156.42,92.47,182.19-1-16.53,99.81-164.94,99.71-182.19,1Z"/>
      <path class="cls-1" d="M138.88,135.87c-21.24,23.43-71.2,23.54-92.59,0-7.74-59.45,100.33-59.55,92.59,0Z"/>
      <path class="cls-1" d="M114.99,64.19c-10.81,18.99-34.04,18.93-44.8,0-8.04-43.01,52.84-43.02,44.8,0Z"/>
      <path class="cls-3" d="M138.88,135.87c-2.55,19.64-37.87,22.91-53.31,21.95-13.3-.83-37.29-6.64-39.28-21.95,21.39,23.54,71.35,23.43,92.59,0Z"/>
      <path class="cls-3" d="M114.99,64.19c-4.78,25.6-40.01,25.6-44.8,0,10.76,18.93,33.99,18.99,44.8,0Z"/>
    </g>
  </g>
</svg>